<svg width="85" height="56" viewBox="0 0 85 56" fill="none" xmlns="http://www.w3.org/2000/svg">
<g id="arrows" clip-path="url(#clip0_1048_1874)">
<path id="Vector" d="M1.00567 32.4003C7.33002 36.8537 15.0455 40.1437 22.9177 38.8615C29.3404 37.8161 35.232 33.6195 37.331 27.3636L35.671 27.5834C38.2906 31.2133 41.8692 34.0488 46.0074 35.7735C50.1457 37.4982 54.6811 38.0444 59.1077 37.3512C63.2489 36.6298 67.1334 34.8626 70.3905 32.218C74.4192 28.99 76.6513 24.4512 79.3273 20.16C79.9876 19.1133 78.3216 18.1394 77.6676 19.1878C75.2953 22.9786 73.3397 27.0431 69.957 30.0712C67.0087 32.6856 63.424 34.4847 59.5587 35.29C51.1648 37.0336 42.3672 33.4436 37.2483 26.6513C37.155 26.502 37.0204 26.3827 36.8608 26.3078C36.7011 26.2328 36.5233 26.2054 36.3485 26.2288C36.1738 26.2522 36.0097 26.3254 35.8759 26.4397C35.7422 26.554 35.6445 26.7044 35.5946 26.8729C33.6665 32.7465 27.8586 36.5103 21.8916 37.3377C14.6732 38.3416 7.48763 35.3292 1.54048 31.4938C0.968163 31.1243 0.466865 32.0065 1.00905 32.3879L1.00567 32.4003Z" fill="#CED2FC"/>
<path id="Vector_2" d="M76.9759 19.3082C72.977 19.5237 68.8854 20.6518 64.962 21.4571C63.8654 21.6823 64.1311 23.3818 65.222 23.376C69.6619 23.3332 74.0624 22.5569 78.2444 21.0786L77.0812 20.4084L78.3568 26.4203C78.7388 28.2116 78.8848 30.3274 79.758 31.9437C79.8517 32.0929 79.9908 32.2083 80.1551 32.2728C80.3193 32.3374 80.4998 32.3479 80.6702 32.3026C80.8406 32.2573 80.9917 32.1586 81.1015 32.0212C81.2112 31.8838 81.2737 31.7148 81.2798 31.5391C81.4117 29.7129 80.6484 27.691 80.2585 25.9042L78.9465 19.9026C78.8772 19.6627 78.7171 19.4587 78.5002 19.3337C78.2832 19.2087 78.0262 19.1724 77.7833 19.2324C73.7573 20.6634 69.5178 21.4115 65.2409 21.4456L65.5008 23.3646C69.3358 22.4884 73.477 21.8226 77.1415 20.3845C77.6617 20.1772 77.6594 19.2925 76.9976 19.3275L76.9759 19.3082Z" fill="#CED2FC"/>
<path id="Vector_3" d="M64.7335 22.6477C67.3983 24.5263 70.0587 26.4128 72.7148 28.3069L76.554 31.0621C77.7668 31.9467 78.9461 33.1035 80.3741 33.591C80.5121 33.6248 80.6569 33.618 80.7909 33.5714C80.925 33.5248 81.0424 33.4403 81.129 33.3282C81.2157 33.2162 81.2677 33.0815 81.2789 32.9404C81.29 32.7992 81.2598 32.6579 81.1919 32.5334C80.3757 31.4013 79.1043 30.7085 77.9641 29.9038C76.5969 28.9439 75.2156 27.9868 73.8099 27.07C70.9984 25.2364 68.1208 23.5144 65.1772 21.9039C65.0783 21.8495 64.9622 21.8354 64.8533 21.8648C64.7444 21.8941 64.6513 21.9645 64.5937 22.0611C64.5361 22.1577 64.5185 22.2729 64.5446 22.3823C64.5707 22.4918 64.6384 22.5869 64.7335 22.6477Z" fill="#CED2FC"/>
</g>
<defs>
<clipPath id="clip0_1048_1874">
<rect width="78" height="36" fill="white" transform="translate(9.41724) rotate(15.1645)"/>
</clipPath>
</defs>
</svg>
