<svg width="52" height="53" viewBox="0 0 52 53" fill="none" xmlns="http://www.w3.org/2000/svg">
<circle cx="26" cy="26.5859" r="24.5" stroke="#F1F1F1" stroke-width="3" stroke-dasharray="4 4"/>
<mask id="path-2-inside-1_1048_1908" fill="white">
<path d="M26 0.585936C21.3285 0.585937 16.7433 1.84456 12.7264 4.22947C8.70953 6.61439 5.40942 10.0375 3.17302 14.1389C0.936612 18.2403 -0.153464 22.8685 0.0173948 27.5369C0.188253 32.2053 1.61373 36.7414 4.14397 40.6683C6.6742 44.5953 10.2157 47.768 14.3962 49.8529C18.5766 51.9378 23.2416 52.8579 27.9006 52.5164C32.5596 52.1749 37.0406 50.5845 40.8723 47.9123C44.7041 45.2401 47.7452 41.5849 49.6758 37.331L26 26.5859L26 0.585936Z"/>
</mask>
<path d="M26 0.585936C21.3285 0.585937 16.7433 1.84456 12.7264 4.22947C8.70953 6.61439 5.40942 10.0375 3.17302 14.1389C0.936612 18.2403 -0.153464 22.8685 0.0173948 27.5369C0.188253 32.2053 1.61373 36.7414 4.14397 40.6683C6.6742 44.5953 10.2157 47.768 14.3962 49.8529C18.5766 51.9378 23.2416 52.8579 27.9006 52.5164C32.5596 52.1749 37.0406 50.5845 40.8723 47.9123C44.7041 45.2401 47.7452 41.5849 49.6758 37.331L26 26.5859L26 0.585936Z" stroke="url(#paint0_linear_1048_1908)" stroke-width="6" mask="url(#path-2-inside-1_1048_1908)"/>
<circle cx="26" cy="26.5859" r="23" fill="white"/>
<path d="M19.4297 20.2109V21.2422L14.8828 31.5859H12.8984L17.4375 21.7109H11.5469V20.2109H19.4297ZM22.4844 30.1016H22.6406C23.3594 30.1016 23.9583 30.0078 24.4375 29.8203C24.9219 29.6276 25.3073 29.362 25.5938 29.0234C25.8802 28.6849 26.0859 28.2865 26.2109 27.8281C26.3359 27.3698 26.3984 26.8724 26.3984 26.3359V24.375C26.3984 23.9115 26.349 23.5052 26.25 23.1562C26.1562 22.8021 26.0208 22.5078 25.8438 22.2734C25.6719 22.0339 25.4714 21.8542 25.2422 21.7344C25.0182 21.6146 24.776 21.5547 24.5156 21.5547C24.2292 21.5547 23.9714 21.6198 23.7422 21.75C23.5182 21.875 23.3281 22.0495 23.1719 22.2734C23.0208 22.4922 22.9036 22.75 22.8203 23.0469C22.7422 23.3385 22.7031 23.651 22.7031 23.9844C22.7031 24.2969 22.7396 24.599 22.8125 24.8906C22.8906 25.1771 23.0052 25.4323 23.1562 25.6562C23.3073 25.8802 23.4974 26.0573 23.7266 26.1875C23.9557 26.3177 24.224 26.3828 24.5312 26.3828C24.8229 26.3828 25.0911 26.3281 25.3359 26.2188C25.5807 26.1042 25.7943 25.9505 25.9766 25.7578C26.1589 25.5651 26.3021 25.349 26.4062 25.1094C26.5104 24.8698 26.5677 24.625 26.5781 24.375L27.2969 24.5938C27.2969 24.9896 27.2135 25.3802 27.0469 25.7656C26.8854 26.1458 26.6589 26.4948 26.3672 26.8125C26.0807 27.125 25.7448 27.375 25.3594 27.5625C24.9792 27.75 24.5651 27.8438 24.1172 27.8438C23.5755 27.8438 23.0964 27.7422 22.6797 27.5391C22.2682 27.3307 21.9245 27.0495 21.6484 26.6953C21.3776 26.3411 21.1745 25.9349 21.0391 25.4766C20.9036 25.0182 20.8359 24.5365 20.8359 24.0312C20.8359 23.4844 20.9193 22.9714 21.0859 22.4922C21.2526 22.013 21.4948 21.5911 21.8125 21.2266C22.1302 20.8568 22.5156 20.5703 22.9688 20.3672C23.4271 20.1589 23.9453 20.0547 24.5234 20.0547C25.138 20.0547 25.6771 20.1745 26.1406 20.4141C26.6042 20.6536 26.9948 20.9844 27.3125 21.4062C27.6302 21.8281 27.8698 22.3177 28.0312 22.875C28.1927 23.4323 28.2734 24.0312 28.2734 24.6719V25.3359C28.2734 26.0078 28.2135 26.6562 28.0938 27.2812C27.974 27.901 27.7786 28.4766 27.5078 29.0078C27.2422 29.5339 26.8906 29.9974 26.4531 30.3984C26.0208 30.7943 25.4896 31.1042 24.8594 31.3281C24.2344 31.5469 23.5 31.6562 22.6562 31.6562H22.4844V30.1016ZM29.9844 23V22.3984C29.9844 21.9661 30.0781 21.5729 30.2656 21.2188C30.4531 20.8646 30.7266 20.5807 31.0859 20.3672C31.4453 20.1536 31.8776 20.0469 32.3828 20.0469C32.9036 20.0469 33.3411 20.1536 33.6953 20.3672C34.0547 20.5807 34.3281 20.8646 34.5156 21.2188C34.7031 21.5729 34.7969 21.9661 34.7969 22.3984V23C34.7969 23.4219 34.7031 23.8099 34.5156 24.1641C34.3333 24.5182 34.0625 24.8021 33.7031 25.0156C33.349 25.2292 32.9141 25.3359 32.3984 25.3359C31.888 25.3359 31.4505 25.2292 31.0859 25.0156C30.7266 24.8021 30.4531 24.5182 30.2656 24.1641C30.0781 23.8099 29.9844 23.4219 29.9844 23ZM31.2891 22.3984V23C31.2891 23.2083 31.3281 23.4062 31.4062 23.5938C31.4896 23.7812 31.6146 23.9323 31.7812 24.0469C31.9479 24.1615 32.1536 24.2188 32.3984 24.2188C32.6484 24.2188 32.8516 24.1615 33.0078 24.0469C33.1693 23.9323 33.2891 23.7812 33.3672 23.5938C33.4453 23.4062 33.4844 23.2083 33.4844 23V22.3984C33.4844 22.1849 33.4427 21.9844 33.3594 21.7969C33.2812 21.6042 33.1615 21.4505 33 21.3359C32.8385 21.2214 32.6328 21.1641 32.3828 21.1641C32.1432 21.1641 31.9401 21.2214 31.7734 21.3359C31.612 21.4505 31.4896 21.6042 31.4062 21.7969C31.3281 21.9844 31.2891 22.1849 31.2891 22.3984ZM35.4688 29.4062V28.7969C35.4688 28.3698 35.5625 27.9792 35.75 27.625C35.9427 27.2708 36.2188 26.987 36.5781 26.7734C36.9375 26.5599 37.3698 26.4531 37.875 26.4531C38.3958 26.4531 38.8333 26.5599 39.1875 26.7734C39.5469 26.987 39.8177 27.2708 40 27.625C40.1875 27.9792 40.2812 28.3698 40.2812 28.7969V29.4062C40.2812 29.8333 40.1875 30.224 40 30.5781C39.8177 30.9323 39.5495 31.2161 39.1953 31.4297C38.8411 31.6432 38.4089 31.75 37.8984 31.75C37.3828 31.75 36.9427 31.6432 36.5781 31.4297C36.2188 31.2161 35.9427 30.9323 35.75 30.5781C35.5625 30.224 35.4688 29.8333 35.4688 29.4062ZM36.7812 28.7969V29.4062C36.7812 29.6146 36.8229 29.8125 36.9062 30C36.9948 30.1875 37.1224 30.3411 37.2891 30.4609C37.4557 30.5755 37.6562 30.6328 37.8906 30.6328C38.1562 30.6328 38.3698 30.5755 38.5312 30.4609C38.6927 30.3411 38.8073 30.1901 38.875 30.0078C38.9479 29.8203 38.9844 29.6198 38.9844 29.4062V28.7969C38.9844 28.5833 38.9427 28.3828 38.8594 28.1953C38.7812 28.0078 38.6589 27.8568 38.4922 27.7422C38.3307 27.6276 38.125 27.5703 37.875 27.5703C37.6302 27.5703 37.4271 27.6276 37.2656 27.7422C37.1042 27.8568 36.9818 28.0078 36.8984 28.1953C36.8203 28.3828 36.7812 28.5833 36.7812 28.7969ZM38.3438 21.8359L32.7891 30.7266L31.8281 30.1719L37.3828 21.2812L38.3438 21.8359Z" fill="black"/>
<defs>
<linearGradient id="paint0_linear_1048_1908" x1="26" y1="0.585936" x2="26" y2="49.4659" gradientUnits="userSpaceOnUse">
<stop stop-color="#B176F2"/>
<stop offset="1" stop-color="#FAC1F1"/>
</linearGradient>
</defs>
</svg>
