<svg width="468" height="360" viewBox="0 0 468 360" fill="none" xmlns="http://www.w3.org/2000/svg">
<path d="M524 360V0L-17 0V360L524 360Z" fill="#FEDD40"/>
<path d="M485.53 65.8613H-17V321.053H485.53V65.8613Z" fill="#FEDD40"/>
<path d="M524 10.0332H459.193V16.3327H524V10.0332Z" fill="white"/>
<path d="M524 10.0332H459.193V16.3327H524V10.0332Z" fill="white"/>
<path d="M524 27.5957H459.193V33.8952H524V27.5957Z" fill="white"/>
<path d="M524 45.1494H459.193V51.4489H524V45.1494Z" fill="white"/>
<path d="M524 62.7119H459.193V69.0114H524V62.7119Z" fill="white"/>
<path d="M524 80.2744H459.193V86.5739H524V80.2744Z" fill="white"/>
<path d="M524 97.8281H459.193V104.128H524V97.8281Z" fill="white"/>
<path d="M524 115.391H459.193V121.69H524V115.391Z" fill="white"/>
<path d="M524 132.953H459.193V139.253H524V132.953Z" fill="white"/>
<path d="M524 150.506H459.193V156.806H524V150.506Z" fill="white"/>
<path d="M524 168.069H459.193V174.368H524V168.069Z" fill="white"/>
<path d="M524 185.631H459.193V191.931H524V185.631Z" fill="white"/>
<path d="M524 203.185H459.193V209.485H524V203.185Z" fill="white"/>
<path d="M524 220.748H459.193V227.047H524V220.748Z" fill="white"/>
<path d="M524 238.31H459.193V244.61H524V238.31Z" fill="white"/>
<path d="M524 255.864H459.193V262.163H524V255.864Z" fill="white"/>
<path d="M524 273.426H459.193V279.726H524V273.426Z" fill="white"/>
<path d="M524 290.989H459.193V297.288H524V290.989Z" fill="white"/>
<path d="M524 308.542H459.193V314.842H524V308.542Z" fill="white"/>
<path d="M524 326.105H459.193V332.404H524V326.105Z" fill="white"/>
<path d="M524 343.667H459.193V349.967H524V343.667Z" fill="white"/>
<path d="M202.149 261.748H23.0977" stroke="#3B3A3A" stroke-width="0.5" stroke-miterlimit="10"/>
<path d="M212.124 217.165H23.0977" stroke="#3B3A3A" stroke-miterlimit="10"/>
<path d="M230.599 261.748H355.694" stroke="#3B3A3A" stroke-width="0.5" stroke-miterlimit="10"/>
<path d="M256.494 307.136H355.694" stroke="#3B3A3A" stroke-width="0.5" stroke-miterlimit="10"/>
<path d="M286.81 282.283C284.925 292.569 282.034 302.644 278.179 312.365C284.428 297.652 291.618 283.357 299.704 269.569C300.04 272.126 298.97 274.63 297.936 276.983C296.264 280.717 294.548 284.442 292.833 288.166L299.855 278.593L295.318 289.936C295.202 290.15 295.173 290.4 295.238 290.635C295.335 290.856 295.725 290.918 295.795 290.688C292.382 293.568 288.565 295.932 284.466 297.704C300.834 291.626 316.664 284.186 331.789 275.461C333.629 274.382 335.654 273.011 335.973 270.896" stroke="black" stroke-miterlimit="10" stroke-linecap="round"/>
<path d="M280.717 246.441L275.189 259.429" stroke="#3B3A3A" stroke-width="0.5" stroke-miterlimit="10"/>
<path d="M323.308 246.441L317.772 259.429" stroke="#3B3A3A" stroke-width="0.5" stroke-miterlimit="10"/>
<path d="M390.176 205.901H388.23V235.603H390.176V205.901Z" fill="#3B3A3A"/>
<path d="M385.922 235.594H386.745V205.892H385.922V235.594Z" fill="#3B3A3A"/>
<path d="M439.94 205.901H437.994V235.603H439.94V205.901Z" fill="#3B3A3A"/>
<path d="M397.331 208.812H398.64V211.334C398.289 211.598 397.894 211.795 397.472 211.918C397.04 212.053 396.59 212.122 396.137 212.121C395.522 212.137 394.914 211.997 394.368 211.714C393.867 211.453 393.448 211.058 393.156 210.573C392.872 210.066 392.723 209.495 392.723 208.914C392.723 208.333 392.872 207.762 393.156 207.255C393.449 206.768 393.872 206.373 394.377 206.114C394.923 205.831 395.531 205.688 396.146 205.698C396.652 205.693 397.154 205.789 397.623 205.981C398.055 206.152 398.441 206.425 398.746 206.777L397.861 207.662C397.66 207.438 397.413 207.26 397.136 207.139C396.86 207.019 396.562 206.959 396.261 206.963C395.892 206.954 395.526 207.04 395.199 207.211C394.902 207.374 394.654 207.616 394.483 207.91C394.315 208.229 394.227 208.584 394.227 208.945C394.227 209.306 394.315 209.661 394.483 209.98C394.654 210.276 394.901 210.521 395.199 210.688C395.52 210.859 395.88 210.944 396.243 210.936C396.631 210.941 397.014 210.85 397.357 210.67L397.331 208.812Z" fill="#3B3A3A"/>
<path d="M403.928 212.015L402.734 210.29H401.408V212.015H399.975V205.822H402.628C403.12 205.809 403.608 205.903 404.061 206.096C404.441 206.257 404.764 206.528 404.989 206.875C405.209 207.234 405.325 207.648 405.325 208.069C405.325 208.491 405.209 208.904 404.989 209.264C404.757 209.608 404.428 209.876 404.043 210.033L405.44 212.024L403.928 212.015ZM403.566 207.255C403.28 207.053 402.933 206.956 402.584 206.981H401.408V209.149H402.584C402.936 209.173 403.284 209.069 403.566 208.857C403.679 208.758 403.768 208.636 403.826 208.497C403.884 208.359 403.91 208.21 403.902 208.06C403.91 207.909 403.884 207.759 403.826 207.619C403.768 207.48 403.679 207.355 403.566 207.255Z" fill="#3B3A3A"/>
<path d="M410.579 210.688H407.696L407.147 212.015H405.679L408.438 205.822H409.862L412.639 212.015H411.127L410.579 210.688ZM410.128 209.6L409.146 207.22L408.155 209.6H410.128Z" fill="#3B3A3A"/>
<path d="M417.406 206.087C417.789 206.248 418.115 206.519 418.343 206.866C418.557 207.227 418.67 207.64 418.67 208.06C418.67 208.48 418.557 208.893 418.343 209.255C418.117 209.603 417.79 209.875 417.406 210.033C416.954 210.227 416.465 210.32 415.973 210.307H414.718V212.015H413.285V205.822H415.938C416.441 205.801 416.942 205.892 417.406 206.087ZM416.875 208.856C416.99 208.759 417.08 208.637 417.139 208.498C417.197 208.36 417.222 208.21 417.211 208.06C417.222 207.909 417.197 207.758 417.139 207.618C417.08 207.478 416.99 207.354 416.875 207.255C416.59 207.051 416.243 206.954 415.894 206.981H414.718V209.104H415.894C416.24 209.138 416.587 209.051 416.875 208.856Z" fill="#3B3A3A"/>
<path d="M425.383 205.813V212.006H423.942V209.467H421.129V212.006H419.688V205.813H421.129V208.219H423.942V205.777L425.383 205.813Z" fill="#3B3A3A"/>
<path d="M426.851 205.813H428.293V212.006H426.851V205.813Z" fill="#3B3A3A"/>
<path d="M431.017 211.758C430.518 211.496 430.102 211.101 429.814 210.617C429.524 210.112 429.372 209.54 429.372 208.958C429.372 208.376 429.524 207.804 429.814 207.299C430.102 206.815 430.518 206.42 431.017 206.158C431.548 205.878 432.141 205.735 432.741 205.742C433.243 205.735 433.74 205.834 434.2 206.034C434.626 206.213 435.002 206.493 435.297 206.848L434.413 207.733C434.223 207.502 433.984 207.317 433.713 207.191C433.442 207.066 433.146 207.003 432.847 207.007C432.49 207 432.136 207.085 431.821 207.255C431.524 207.42 431.279 207.665 431.114 207.963C430.951 208.282 430.866 208.635 430.866 208.994C430.866 209.352 430.951 209.705 431.114 210.024C431.281 210.32 431.526 210.565 431.821 210.732C432.136 210.902 432.49 210.987 432.847 210.98C433.146 210.982 433.442 210.918 433.713 210.791C433.984 210.664 434.223 210.477 434.413 210.245L435.297 211.13C435.005 211.491 434.628 211.774 434.2 211.953C433.691 212.159 433.144 212.254 432.595 212.233C432.046 212.212 431.508 212.074 431.017 211.829V211.758Z" fill="#3B3A3A"/>
<path d="M393.422 217.191H396.738C397.488 217.176 398.231 217.34 398.905 217.669C399.512 217.961 400.019 218.426 400.364 219.005C400.706 219.612 400.885 220.298 400.885 220.995C400.885 221.693 400.706 222.378 400.364 222.986C400.019 223.565 399.512 224.029 398.905 224.322C398.231 224.651 397.488 224.815 396.738 224.8H393.422V217.191ZM396.676 223.605C397.185 223.619 397.689 223.506 398.144 223.278C398.552 223.087 398.894 222.779 399.126 222.393C399.352 221.972 399.47 221.5 399.47 221.022C399.47 220.543 399.352 220.072 399.126 219.65C398.894 219.265 398.552 218.957 398.144 218.766C397.688 218.542 397.185 218.43 396.676 218.438H394.828V223.658L396.676 223.605Z" fill="#3B3A3A"/>
<path d="M408.085 223.614V224.8H402.389V217.191H407.934V218.376H403.795V220.358H407.466V221.491H403.795V223.588L408.085 223.614Z" fill="#3B3A3A"/>
<path d="M410.313 224.658C409.842 224.527 409.403 224.301 409.022 223.995L409.509 222.897C409.855 223.162 410.243 223.366 410.658 223.499C411.096 223.653 411.556 223.731 412.02 223.729C412.458 223.757 412.895 223.665 413.285 223.464C413.407 223.387 413.509 223.282 413.582 223.157C413.654 223.032 413.695 222.891 413.701 222.747C413.703 222.645 413.683 222.544 413.642 222.45C413.6 222.357 413.539 222.274 413.462 222.207C413.294 222.054 413.095 221.939 412.878 221.871C412.642 221.794 412.315 221.706 411.896 221.606C411.419 221.496 410.95 221.358 410.49 221.19C410.148 221.049 409.844 220.827 409.606 220.544C409.337 220.209 409.198 219.788 409.217 219.358C409.213 218.949 409.333 218.548 409.562 218.208C409.815 217.841 410.172 217.557 410.587 217.394C411.105 217.176 411.662 217.065 412.224 217.067C412.686 217.068 413.147 217.127 413.594 217.244C414.006 217.343 414.397 217.51 414.753 217.739L414.311 218.836C413.984 218.644 413.633 218.495 413.267 218.394C412.925 218.293 412.571 218.243 412.215 218.244C411.783 218.209 411.351 218.308 410.977 218.527C410.852 218.607 410.75 218.717 410.679 218.846C410.607 218.976 410.57 219.122 410.57 219.27C410.564 219.37 410.582 219.47 410.622 219.563C410.662 219.655 410.723 219.736 410.8 219.801C410.972 219.951 411.174 220.063 411.392 220.128C411.631 220.208 411.958 220.296 412.365 220.402C412.837 220.506 413.301 220.642 413.754 220.809C414.111 220.946 414.43 221.168 414.682 221.455C414.954 221.785 415.093 222.205 415.071 222.632C415.075 223.036 414.955 223.432 414.726 223.765C414.47 224.135 414.11 224.421 413.692 224.587C413.154 224.799 412.58 224.901 412.003 224.888C411.431 224.896 410.862 224.818 410.313 224.658Z" fill="#3B3A3A"/>
<path d="M416.486 217.191H417.901V224.8H416.486V217.191Z" fill="#3B3A3A"/>
<path d="M425.144 220.907H426.48V223.941C426.068 224.259 425.604 224.502 425.109 224.658C424.589 224.824 424.046 224.908 423.499 224.906C422.77 224.915 422.049 224.742 421.403 224.401C420.79 224.069 420.279 223.577 419.922 222.977C419.565 222.378 419.377 221.693 419.377 220.995C419.377 220.297 419.565 219.613 419.922 219.013C420.279 218.414 420.79 217.921 421.403 217.589C422.055 217.247 422.782 217.074 423.517 217.084C424.122 217.072 424.723 217.18 425.286 217.403C425.789 217.589 426.241 217.893 426.604 218.288L425.719 219.173C425.449 218.889 425.124 218.665 424.763 218.512C424.402 218.36 424.014 218.284 423.623 218.288C423.128 218.279 422.639 218.395 422.199 218.624C421.79 218.841 421.45 219.169 421.218 219.571C420.985 219.994 420.864 220.468 420.864 220.951C420.864 221.433 420.985 221.908 421.218 222.331C421.452 222.733 421.791 223.064 422.199 223.287C422.633 223.522 423.121 223.641 423.614 223.632C424.161 223.642 424.701 223.508 425.18 223.242L425.144 220.907Z" fill="#3B3A3A"/>
<path d="M435.085 217.191V224.8H433.926L429.734 219.651V224.8H428.337V217.191H429.495L433.687 222.34V217.191H435.085Z" fill="#3B3A3A"/>
<path d="M393.51 230.02H394.801V235.594H393.51V230.02Z" fill="#3B3A3A"/>
<path d="M401.24 230.02V235.594H400.187L397.401 232.205V235.594H396.128V230.02H397.189L399.957 233.409V230.02H401.24Z" fill="#3B3A3A"/>
<path d="M403.123 235.514C402.765 235.419 402.426 235.26 402.124 235.045L402.566 234.072C402.835 234.262 403.134 234.406 403.451 234.497C403.771 234.601 404.105 234.654 404.441 234.656C404.722 234.675 405.002 234.62 405.255 234.497C405.335 234.454 405.402 234.39 405.448 234.312C405.495 234.234 405.52 234.145 405.52 234.054C405.521 233.991 405.507 233.929 405.479 233.872C405.451 233.815 405.411 233.766 405.361 233.727C405.245 233.629 405.109 233.556 404.963 233.515C404.804 233.462 404.583 233.409 404.308 233.338C403.955 233.259 403.606 233.159 403.265 233.037C402.994 232.938 402.753 232.77 402.566 232.55C402.364 232.301 402.26 231.986 402.274 231.666C402.269 231.35 402.362 231.041 402.54 230.781C402.738 230.498 403.015 230.28 403.336 230.153C403.746 229.989 404.185 229.911 404.627 229.923C404.978 229.924 405.328 229.965 405.67 230.046C405.982 230.126 406.28 230.251 406.555 230.418L406.157 231.391C405.688 231.114 405.154 230.964 404.609 230.958C404.33 230.94 404.051 231.001 403.804 231.135C403.725 231.182 403.66 231.25 403.615 231.331C403.57 231.411 403.547 231.502 403.548 231.595C403.547 231.688 403.575 231.78 403.629 231.856C403.683 231.932 403.76 231.99 403.849 232.019C404.133 232.142 404.429 232.234 404.733 232.294C405.087 232.375 405.436 232.478 405.777 232.603C406.047 232.699 406.288 232.864 406.475 233.081C406.681 233.329 406.785 233.645 406.767 233.966C406.774 234.281 406.681 234.591 406.502 234.851C406.301 235.135 406.021 235.353 405.697 235.479C405.283 235.642 404.841 235.72 404.397 235.709C403.965 235.703 403.537 235.638 403.123 235.514Z" fill="#3B3A3A"/>
<path d="M408.73 231.073H406.962V230.02H411.817V231.073H410.048V235.594H408.757L408.73 231.073Z" fill="#3B3A3A"/>
<path d="M412.498 230.02H413.789V235.594H412.498V230.02Z" fill="#3B3A3A"/>
<path d="M416.265 231.073H414.496V230.02H419.361V231.073H417.592V235.594H416.301L416.265 231.073Z" fill="#3B3A3A"/>
<path d="M420.554 235.028C420.323 234.775 420.144 234.477 420.03 234.153C419.916 233.829 419.869 233.486 419.891 233.143V230.02H421.182V233.09C421.182 234.09 421.598 234.594 422.42 234.594C422.592 234.605 422.765 234.579 422.925 234.516C423.086 234.453 423.23 234.356 423.349 234.231C423.588 233.901 423.701 233.496 423.667 233.09V230.02H424.941V233.143C424.963 233.486 424.916 233.829 424.802 234.153C424.688 234.477 424.509 234.775 424.278 235.028C423.752 235.457 423.094 235.691 422.416 235.691C421.738 235.691 421.08 235.457 420.554 235.028Z" fill="#3B3A3A"/>
<path d="M427.258 231.073H425.489V230.02H430.353V231.073H428.585V235.594H427.258V231.073Z" fill="#3B3A3A"/>
<path d="M435.368 234.559V235.594H431.043V230.02H435.262V231.055H432.334V232.267H434.917V233.267H432.334V234.559H435.368Z" fill="#3B3A3A"/>
<path d="M392.051 155.532C391.839 155.611 390.928 154.541 390.777 153.205C390.662 152.081 391.193 151.772 391.122 150.4C391.04 149.736 390.904 149.079 390.716 148.436C391.451 149.135 391.904 150.079 391.989 151.09C392.113 151.975 391.856 152.187 391.918 153.683C391.98 154.912 392.192 155.479 392.051 155.532Z" fill="#3B3A3A"/>
<path d="M392.042 155.532C391.883 155.373 392.316 154.435 393.103 153.815C393.89 153.196 394.934 153.063 396.464 152.975C397.693 152.904 399.17 152.975 399.179 153.125C399.188 153.276 398.949 153.258 396.959 153.692C396.078 153.836 395.209 154.046 394.359 154.32C392.882 154.886 392.201 155.691 392.042 155.532Z" fill="#3B3A3A"/>
<path d="M391.37 156.903C391.653 156.903 391.945 155.806 391.697 154.806C391.494 153.992 391.06 153.78 390.618 153.037C389.522 151.267 390.229 149.374 389.92 149.321C389.61 149.268 388.584 151.197 389.15 152.86C389.345 153.417 389.53 153.4 390.141 154.47C390.998 156.019 391.105 156.903 391.37 156.903Z" fill="#3B3A3A"/>
<path d="M391.202 156.788C391.114 156.514 392.086 155.904 392.856 155.594C393.631 155.388 394.42 155.238 395.217 155.143C396.135 154.811 396.99 154.326 397.746 153.709C397.23 154.788 396.359 155.657 395.279 156.169C393.492 157.142 391.326 157.178 391.202 156.788Z" fill="#3B3A3A"/>
<path d="M391.078 158.673C391.282 158.567 391.078 157.691 390.795 157.063C390.512 156.435 390.273 156.364 389.911 155.621C389.546 154.905 389.318 154.128 389.239 153.329C389.141 152.551 389.239 152.161 389.15 152.144C388.646 152.907 388.451 153.834 388.602 154.736C388.745 155.621 389.111 156.455 389.663 157.16C390.043 157.718 390.831 158.753 391.078 158.673Z" fill="#3B3A3A"/>
<path d="M390.937 158.593C391.14 158.181 391.444 157.828 391.821 157.567C392.555 157.045 393.271 157.186 394.138 157.098C396.269 156.877 397.525 155.479 397.676 155.647C397.826 155.815 396.791 156.885 395.482 157.629C394.091 158.381 392.513 158.715 390.937 158.593Z" fill="#3B3A3A"/>
<path d="M391.962 155.302C391.644 155.116 391.963 153.745 392.608 152.648C393.103 151.816 393.492 151.701 395.04 150.188C396.473 148.808 396.853 148.242 396.977 148.33C397.101 148.419 396.172 150.648 394.739 152.568C394.023 153.568 392.396 155.559 391.962 155.302Z" fill="#3B3A3A"/>
<path d="M413.471 189.86C412.264 189.857 411.059 189.78 409.862 189.63C405.776 189.126 395.757 186.976 391.052 178.129C387.682 171.794 388.796 165.282 389.168 163.15C389.732 159.896 390.908 156.78 392.635 153.966L393.369 154.417C391.705 157.129 390.568 160.131 390.017 163.265C389.663 165.335 388.575 171.617 391.786 177.704C396.296 186.189 405.989 188.233 409.942 188.719C415.241 189.499 420.648 188.474 425.295 185.808C429.581 183.368 432.924 179.557 434.784 174.988C436.635 170.166 436.766 164.854 435.156 159.947C434.422 157.775 433.351 155.732 431.981 153.895L432.67 153.382C434.095 155.293 435.211 157.415 435.978 159.672C437.652 164.779 437.514 170.307 435.589 175.324C433.654 180.072 430.182 184.032 425.728 186.569C422.015 188.755 417.779 189.892 413.471 189.86Z" fill="#3B3A3A"/>
<path d="M389.955 161.15C390.043 161.362 391.458 161.283 392.52 160.469C393.404 159.779 393.28 159.177 394.288 158.283C394.827 157.886 395.398 157.533 395.995 157.231C394.989 157.172 393.997 157.487 393.21 158.115C392.458 158.664 392.511 159 391.379 159.947C390.459 160.77 389.902 161.009 389.955 161.15Z" fill="#3B3A3A"/>
<path d="M389.973 161.159C390.194 161.159 390.565 160.204 390.477 159.204C390.388 158.204 389.76 157.364 388.77 156.196C387.974 155.249 386.922 154.214 386.789 154.32C386.656 154.426 386.851 154.585 387.903 156.328C388.402 157.076 388.846 157.86 389.23 158.673C389.849 160.106 389.743 161.15 389.973 161.159Z" fill="#3B3A3A"/>
<path d="M389.133 164.786C389.053 164.574 389.796 164.061 390.406 163.769C390.939 163.577 391.482 163.414 392.033 163.282C392.78 162.98 393.463 162.542 394.05 161.991C394.633 161.469 394.828 161.106 394.89 161.159C394.774 162.067 394.311 162.894 393.599 163.468C392.908 164.042 392.084 164.432 391.202 164.601C390.512 164.786 389.23 165.043 389.133 164.786Z" fill="#3B3A3A"/>
<path d="M389.23 164.866C389.355 164.434 389.37 163.978 389.274 163.539C389.062 162.654 388.39 162.292 387.832 161.655C386.373 160.097 386.347 158.213 386.143 158.257C385.94 158.301 385.975 159.752 386.497 161.195C387.043 162.652 387.99 163.925 389.23 164.866Z" fill="#3B3A3A"/>
<path d="M389.601 162.99C389.451 162.752 390.096 161.849 391.025 161.416C391.794 161.053 392.228 161.256 393.068 161.15C395.137 160.867 396.154 159.133 396.384 159.381C396.614 159.628 395.774 161.601 394.129 162.203C393.511 162.332 392.885 162.414 392.254 162.451C390.494 162.716 389.752 163.212 389.601 162.99Z" fill="#3B3A3A"/>
<path d="M389.796 163.097C390.07 162.991 389.937 161.858 389.681 161.053C389.35 160.325 388.969 159.622 388.54 158.947C388.221 158.025 388.057 157.056 388.054 156.081C387.543 157.159 387.418 158.38 387.7 159.54C388.08 161.495 389.416 163.203 389.796 163.097Z" fill="#3B3A3A"/>
<path d="M389.124 167.698C388.973 167.857 387.682 167.282 386.983 166.132C386.391 165.167 386.736 164.663 386.099 163.477C385.739 162.914 385.334 162.382 384.887 161.885C385.849 162.191 386.662 162.844 387.169 163.716C387.673 164.486 387.514 164.76 388.213 166.079C388.796 167.158 389.23 167.583 389.124 167.698Z" fill="#3B3A3A"/>
<path d="M389.115 167.697C388.911 167.626 388.903 166.591 389.345 165.689C389.787 164.786 390.671 164.229 391.998 163.495C393.086 162.902 394.439 162.318 394.527 162.459C394.616 162.601 394.368 162.681 392.758 163.937C392.026 164.447 391.329 165.006 390.671 165.609C389.601 166.759 389.327 167.768 389.115 167.697Z" fill="#3B3A3A"/>
<path d="M389.097 169.219C389.345 169.069 389.097 167.981 388.496 167.184C387.956 166.53 387.479 166.53 386.771 166.061C385.002 164.919 384.852 162.92 384.551 163.008C384.251 163.097 384.145 165.273 385.365 166.547C385.781 166.972 385.94 166.866 386.948 167.574C388.416 168.582 388.867 169.352 389.097 169.219Z" fill="#3B3A3A"/>
<path d="M388.894 169.193C388.699 168.98 389.309 168.016 389.884 167.423C390.609 166.644 391.043 166.68 391.821 166.007C392.506 165.312 393.07 164.508 393.493 163.627C393.489 164.823 393.077 165.981 392.325 166.91C391.114 168.538 389.177 169.493 388.894 169.193Z" fill="#3B3A3A"/>
<path d="M389.566 170.909C389.707 170.723 389.133 170.024 388.628 169.582C388.124 169.14 387.85 169.166 387.187 168.697C386.552 168.211 386.012 167.611 385.595 166.928C385.179 166.273 385.091 165.884 385.011 165.901C384.886 166.807 385.107 167.727 385.63 168.476C386.129 169.232 386.819 169.842 387.629 170.246C388.248 170.538 389.407 171.13 389.566 170.909Z" fill="#3B3A3A"/>
<path d="M389.433 170.935C389.428 170.485 389.538 170.04 389.752 169.644C390.203 168.865 390.91 168.679 391.653 168.228C393.484 167.122 394.023 165.317 394.2 165.423C394.377 165.53 393.952 166.901 393.059 168.148C392.14 169.404 390.882 170.371 389.433 170.935Z" fill="#3B3A3A"/>
<path d="M389.645 173.714C389.813 173.864 391.052 173.192 391.662 171.998C392.184 170.989 391.794 170.511 392.352 169.255C392.668 168.666 393.032 168.104 393.439 167.574C392.508 167.952 391.749 168.661 391.308 169.564C390.857 170.378 391.034 170.635 390.424 172.006C389.928 173.112 389.53 173.564 389.645 173.714Z" fill="#3B3A3A"/>
<path d="M389.654 173.714C389.858 173.625 389.787 172.599 389.274 171.732C388.761 170.865 387.841 170.378 386.444 169.741C385.321 169.228 383.924 168.741 383.853 168.856C383.782 168.971 384.021 169.069 385.728 170.192C386.497 170.643 387.233 171.149 387.93 171.705C389.097 172.767 389.442 173.758 389.654 173.714Z" fill="#3B3A3A"/>
<path d="M390.45 177.306C390.291 177.155 390.733 176.368 391.158 175.846C391.582 175.324 391.856 175.306 392.431 174.705C392.972 174.111 393.401 173.425 393.696 172.678C393.997 171.953 394.032 171.555 394.103 171.564C394.38 172.439 394.317 173.387 393.926 174.218C393.545 175.029 392.967 175.731 392.245 176.262C391.697 176.722 390.654 177.5 390.45 177.306Z" fill="#3B3A3A"/>
<path d="M390.592 177.315C390.517 176.873 390.335 176.457 390.061 176.103C389.495 175.395 388.761 175.333 387.956 175.015C385.966 174.227 385.135 172.537 384.976 172.67C384.817 172.803 385.462 174.094 386.55 175.174C387.669 176.254 389.07 176.996 390.592 177.315Z" fill="#3B3A3A"/>
<path d="M390.114 175.483C389.875 175.333 390.07 174.236 390.724 173.448C391.264 172.802 391.75 172.794 392.493 172.334C394.262 171.192 394.421 169.193 394.722 169.281C395.022 169.37 395.12 171.555 393.89 172.82C393.475 173.245 393.316 173.139 392.307 173.847C390.795 174.846 390.335 175.616 390.114 175.483Z" fill="#3B3A3A"/>
<path d="M390.309 175.483C390.512 175.271 389.902 174.306 389.327 173.714C388.602 172.935 388.169 172.97 387.399 172.298C386.712 171.603 386.15 170.795 385.737 169.909C385.586 169.971 385.798 171.679 386.895 173.192C388.089 174.784 390.035 175.749 390.309 175.483Z" fill="#3B3A3A"/>
<path d="M391.812 178.244C391.618 178.129 391.865 177.262 392.148 176.651C392.431 176.041 392.688 175.961 393.103 175.236C393.492 174.531 393.744 173.76 393.846 172.962C393.97 172.183 393.899 171.794 393.979 171.785C394.468 172.578 394.633 173.528 394.439 174.439C394.264 175.319 393.872 176.14 393.298 176.828C392.873 177.368 392.051 178.377 391.812 178.244Z" fill="#3B3A3A"/>
<path d="M391.945 178.208C391.77 177.795 391.493 177.433 391.14 177.156C390.415 176.616 389.698 176.731 388.832 176.616C386.718 176.333 385.506 174.891 385.383 175.05C385.259 175.209 386.196 176.315 387.505 177.102C388.85 177.887 390.39 178.27 391.945 178.208Z" fill="#3B3A3A"/>
<path d="M393.652 180.491C393.652 180.721 392.272 181.084 390.999 180.642C389.928 180.27 389.875 179.659 388.611 179.129C387.976 178.919 387.326 178.762 386.665 178.66C387.604 178.298 388.644 178.298 389.584 178.66C390.468 178.943 390.512 179.252 391.892 179.828C393.05 180.288 393.652 180.341 393.652 180.491Z" fill="#3B3A3A"/>
<path d="M393.652 180.5C393.448 180.579 392.767 179.783 392.564 178.801C392.36 177.819 392.67 176.837 393.245 175.412C393.705 174.271 394.386 172.953 394.545 173.015C394.704 173.077 394.545 173.289 394.103 175.271C393.856 176.141 393.673 177.028 393.554 177.925C393.422 179.465 393.846 180.429 393.652 180.5Z" fill="#3B3A3A"/>
<path d="M394.58 181.677C394.677 181.411 393.837 180.686 392.811 180.482C391.98 180.314 391.609 180.615 390.769 180.704C388.69 180.925 387.293 179.483 387.116 179.739C386.939 179.996 388.23 181.756 389.973 181.951C390.605 181.931 391.235 181.863 391.856 181.748C393.652 181.677 394.536 181.942 394.58 181.677Z" fill="#3B3A3A"/>
<path d="M394.412 181.8C394.12 181.8 393.988 180.632 394.041 179.792C394.193 179.004 394.397 178.226 394.651 177.465C394.747 176.496 394.675 175.517 394.439 174.572C395.195 175.495 395.607 176.652 395.606 177.845C395.712 179.907 394.81 181.853 394.412 181.8Z" fill="#3B3A3A"/>
<path d="M396.013 182.703C396.013 182.473 395.129 182.296 394.448 182.269C393.882 182.309 393.318 182.377 392.758 182.473C391.954 182.496 391.153 182.367 390.397 182.092C389.654 181.845 389.336 181.606 389.292 181.668C389.766 182.45 390.518 183.024 391.397 183.278C392.26 183.526 393.173 183.554 394.05 183.358C394.757 183.251 396.031 182.977 396.013 182.703Z" fill="#3B3A3A"/>
<path d="M395.925 182.809C395.64 182.462 395.448 182.048 395.367 181.606C395.208 180.721 395.642 180.128 395.933 179.314C396.65 177.297 395.933 175.563 396.137 175.528C396.34 175.492 396.88 176.828 396.977 178.359C397.056 179.912 396.691 181.456 395.925 182.809Z" fill="#3B3A3A"/>
<path d="M397.817 184.8C398.047 184.8 398.578 183.499 398.295 182.19C398.065 181.084 397.463 180.951 397.101 179.624C396.97 178.968 396.896 178.302 396.88 177.633C396.395 178.519 396.257 179.553 396.491 180.535C396.659 181.42 396.959 181.535 397.375 182.968C397.693 184.181 397.667 184.791 397.817 184.8Z" fill="#3B3A3A"/>
<path d="M397.826 184.791C397.932 184.596 397.225 183.835 396.278 183.49C395.332 183.145 394.315 183.349 392.829 183.738C391.635 184.057 390.247 184.57 390.291 184.729C390.335 184.888 390.556 184.782 392.582 184.579C393.46 184.449 394.347 184.375 395.235 184.357C396.827 184.446 397.72 184.994 397.826 184.791Z" fill="#3B3A3A"/>
<path d="M400.727 187.1C400.497 187.1 400.346 186.216 400.346 185.517C400.346 184.818 400.541 184.632 400.603 183.836C400.65 183.031 400.548 182.224 400.302 181.456C400.081 180.712 399.851 180.385 399.922 180.341C400.682 180.845 401.228 181.615 401.452 182.5C401.679 183.37 401.679 184.284 401.452 185.154C401.337 185.862 401.019 187.127 400.727 187.1Z" fill="#3B3A3A"/>
<path d="M400.859 186.985C400.525 186.685 400.121 186.475 399.683 186.375C398.88 186.319 398.077 186.49 397.366 186.87C395.323 187.525 393.616 186.737 393.572 186.941C393.528 187.144 394.854 187.728 396.376 187.879C397.925 188.013 399.48 187.703 400.859 186.985Z" fill="#3B3A3A"/>
<path d="M399.329 185.906C399.046 185.906 398.507 184.968 398.516 183.942C398.516 183.101 398.887 182.791 399.144 181.986C399.789 179.996 398.657 178.332 398.94 178.217C399.223 178.102 400.709 179.721 400.523 181.464C400.376 182.068 400.184 182.659 399.948 183.234C399.453 184.986 399.586 185.87 399.329 185.906Z" fill="#3B3A3A"/>
<path d="M399.462 185.764C399.462 185.464 398.41 185.101 397.569 184.986C396.769 184.973 395.968 185.015 395.173 185.11C394.204 185.003 393.26 184.737 392.378 184.322C393.14 185.232 394.187 185.856 395.35 186.092C397.322 186.64 399.436 186.163 399.462 185.764Z" fill="#3B3A3A"/>
<path d="M402.832 188.268C402.61 188.268 402.495 187.383 402.522 186.675C402.6 186.11 402.709 185.548 402.849 184.994C402.929 184.195 402.86 183.388 402.646 182.614C402.51 182.244 402.394 181.866 402.301 181.482C403.045 182.014 403.563 182.807 403.751 183.703C403.936 184.584 403.893 185.497 403.627 186.357C403.477 187.047 403.106 188.303 402.832 188.268Z" fill="#3B3A3A"/>
<path d="M402.947 188.189C402.625 187.877 402.229 187.652 401.797 187.534C400.912 187.322 400.302 187.711 399.462 187.941C397.401 188.507 395.721 187.658 395.668 187.852C395.615 188.047 396.915 188.737 398.427 188.905C399.971 189.101 401.539 188.852 402.947 188.189Z" fill="#3B3A3A"/>
<path d="M404.476 188.197C404.255 188.197 403.928 187.383 403.795 186.72C403.734 186.152 403.704 185.582 403.707 185.012C403.594 184.216 403.333 183.448 402.938 182.747C402.566 182.066 402.274 181.791 402.336 181.729C403.182 182.073 403.869 182.72 404.264 183.543C404.66 184.348 404.839 185.241 404.786 186.136C404.804 186.861 404.751 188.162 404.476 188.197Z" fill="#3B3A3A"/>
<path d="M404.574 188.091C404.183 187.868 403.742 187.746 403.291 187.737C402.407 187.737 401.885 188.259 401.125 188.684C399.259 189.728 397.428 189.312 397.428 189.516C397.428 189.719 398.834 190.029 400.355 189.87C401.902 189.69 403.365 189.073 404.574 188.091Z" fill="#3B3A3A"/>
<path d="M407.298 188.896C407.421 189.091 406.546 190.197 405.272 190.604C404.193 190.949 403.787 190.489 402.451 190.834C401.815 191.043 401.2 191.31 400.612 191.63C401.142 190.773 401.971 190.143 402.938 189.86C403.822 189.56 404.034 189.772 405.485 189.409C406.705 189.091 407.218 188.755 407.298 188.896Z" fill="#3B3A3A"/>
<path d="M407.298 188.905C407.174 189.091 406.174 188.852 405.405 188.206C404.636 187.56 404.308 186.569 403.91 185.083C403.592 183.889 403.353 182.429 403.512 182.429C403.672 182.429 403.689 182.632 404.521 184.499C404.838 185.332 405.213 186.142 405.644 186.923C406.502 188.206 407.421 188.755 407.298 188.905Z" fill="#3B3A3A"/>
<path d="M408.775 189.294C408.686 189.02 407.581 188.949 406.652 189.392C405.891 189.754 405.768 190.223 405.149 190.798C403.619 192.223 401.611 191.913 401.655 192.223C401.699 192.533 403.76 193.161 405.264 192.267C405.776 191.966 405.715 191.789 406.643 190.975C407.996 189.808 408.845 189.542 408.775 189.294Z" fill="#3B3A3A"/>
<path d="M408.686 189.48C408.43 189.622 407.634 188.799 407.174 188.091C406.824 187.374 406.528 186.632 406.289 185.87C405.785 185.036 405.139 184.296 404.379 183.685C404.468 183.552 406.077 184.172 407.28 185.605C408.483 187.038 409.049 189.286 408.686 189.48Z" fill="#3B3A3A"/>
<path d="M410.526 189.232C410.375 189.055 409.562 189.445 409.013 189.834C408.465 190.223 408.421 190.489 407.775 191.011C407.146 191.511 406.429 191.889 405.661 192.126C404.919 192.373 404.521 192.373 404.521 192.453C405.374 192.787 406.321 192.787 407.174 192.453C408.016 192.139 408.763 191.612 409.34 190.922C409.845 190.436 410.694 189.445 410.526 189.232Z" fill="#3B3A3A"/>
<path d="M410.517 189.374C410.078 189.271 409.674 189.058 409.34 188.755C408.686 188.135 408.677 187.401 408.456 186.569C407.819 184.534 406.201 183.579 406.334 183.428C406.466 183.278 407.713 184.021 408.713 185.198C409.695 186.392 410.32 187.84 410.517 189.374Z" fill="#3B3A3A"/>
<path d="M433.679 155.594C433.891 155.673 434.802 154.603 434.943 153.267C435.067 152.143 434.536 151.834 434.598 150.462C434.686 149.798 434.825 149.141 435.014 148.498C434.275 149.194 433.822 150.14 433.741 151.152C433.617 152.037 433.873 152.249 433.802 153.745C433.749 154.974 433.528 155.541 433.679 155.594Z" fill="#3B3A3A"/>
<path d="M433.687 155.594C433.847 155.434 433.413 154.497 432.617 153.877C431.821 153.258 430.795 153.125 429.266 152.992C428.036 152.922 426.559 152.992 426.542 153.143C426.524 153.293 426.78 153.276 428.77 153.709C429.651 153.853 430.521 154.063 431.37 154.337C432.847 154.948 433.528 155.753 433.687 155.594Z" fill="#3B3A3A"/>
<path d="M434.333 156.957C434.041 156.957 433.758 155.859 434.006 154.86C434.209 154.046 434.643 153.833 435.085 153.09C436.173 151.321 435.474 149.427 435.775 149.374C436.075 149.321 437.119 151.25 436.553 152.913C436.358 153.471 436.164 153.453 435.562 154.523C434.704 156.098 434.616 156.983 434.333 156.957Z" fill="#3B3A3A"/>
<path d="M434.528 156.85C434.616 156.576 433.643 155.966 432.865 155.656C432.093 155.45 431.306 155.299 430.512 155.205C429.593 154.876 428.738 154.391 427.983 153.771C427.877 153.887 428.806 155.346 430.442 156.231C432.237 157.204 434.404 157.24 434.528 156.85Z" fill="#3B3A3A"/>
<path d="M434.651 158.673C434.448 158.567 434.651 157.691 434.934 157.072C435.217 156.452 435.456 156.364 435.819 155.621C436.179 154.904 436.407 154.127 436.491 153.329C436.579 152.551 436.491 152.161 436.579 152.144C437.078 152.909 437.274 153.834 437.128 154.736C436.982 155.621 436.613 156.456 436.058 157.16C435.686 157.788 434.89 158.815 434.651 158.673Z" fill="#3B3A3A"/>
<path d="M434.784 158.673C434.598 158.263 434.308 157.91 433.944 157.646C433.21 157.124 432.485 157.266 431.618 157.177C429.495 156.956 428.24 155.558 428.08 155.726C427.921 155.894 428.965 156.965 430.274 157.708C431.655 158.452 433.22 158.787 434.784 158.673Z" fill="#3B3A3A"/>
<path d="M433.767 155.364C434.077 155.178 433.767 153.807 433.121 152.709C432.626 151.878 432.237 151.763 430.689 150.25C429.142 148.737 428.876 148.303 428.753 148.392C428.629 148.48 429.557 150.71 430.99 152.63C431.68 153.63 433.334 155.62 433.767 155.364Z" fill="#3B3A3A"/>
<path d="M435.766 161.212C435.677 161.424 434.271 161.345 433.201 160.531C432.317 159.841 432.449 159.239 431.432 158.345C430.897 157.947 430.329 157.594 429.734 157.292C430.737 157.234 431.727 157.549 432.511 158.177C433.263 158.726 433.219 159.062 434.342 160.009C435.27 160.832 435.828 161.07 435.766 161.212Z" fill="#3B3A3A"/>
<path d="M435.757 161.221C435.536 161.221 435.156 160.265 435.253 159.265C435.35 158.266 435.969 157.425 436.951 156.257C437.756 155.311 438.808 154.275 438.941 154.382C439.073 154.488 438.879 154.647 437.817 156.39C437.323 157.131 436.874 157.903 436.473 158.699C435.872 160.168 435.987 161.212 435.757 161.221Z" fill="#3B3A3A"/>
<path d="M436.588 164.866C436.677 164.654 435.934 164.141 435.324 163.849C434.787 163.658 434.241 163.495 433.687 163.362C432.944 163.061 432.263 162.622 431.68 162.07C431.096 161.548 430.902 161.185 430.796 161.239C430.923 162.142 431.384 162.966 432.087 163.548C432.778 164.12 433.602 164.51 434.483 164.68C435.217 164.866 436.491 165.105 436.588 164.866Z" fill="#3B3A3A"/>
<path d="M436.464 164.919C436.352 164.484 436.352 164.028 436.464 163.592C436.677 162.708 437.349 162.345 437.906 161.708C439.365 160.151 439.392 158.266 439.595 158.31C439.798 158.355 439.754 159.806 439.241 161.248C438.683 162.711 437.72 163.984 436.464 164.919Z" fill="#3B3A3A"/>
<path d="M436.102 163.097C436.261 162.858 435.615 161.956 434.678 161.522C433.917 161.159 433.475 161.363 432.644 161.257C430.566 160.973 429.557 159.239 429.327 159.487C429.098 159.735 429.929 161.708 431.574 162.309C432.192 162.437 432.819 162.519 433.449 162.557C435.217 162.778 435.978 163.274 436.102 163.097Z" fill="#3B3A3A"/>
<path d="M435.934 163.097C435.66 162.991 435.792 161.858 436.049 161.053C436.367 160.044 436.774 159.885 437.19 158.947C437.514 158.027 437.675 157.057 437.667 156.081C437.826 156.081 438.375 157.709 438.021 159.54C437.649 161.557 436.305 163.265 435.934 163.097Z" fill="#3B3A3A"/>
<path d="M436.597 167.759C436.756 167.918 438.039 167.343 438.746 166.193C439.33 165.229 438.985 164.724 439.631 163.539C439.99 162.976 440.396 162.443 440.842 161.946C439.884 162.254 439.074 162.906 438.569 163.778C438.065 164.547 438.216 164.822 437.517 166.14C436.924 167.219 436.491 167.644 436.597 167.759Z" fill="#3B3A3A"/>
<path d="M436.615 167.759C436.818 167.688 436.827 166.653 436.385 165.751C435.943 164.848 435.049 164.291 433.732 163.557C432.653 162.964 431.291 162.38 431.211 162.521C431.132 162.663 431.37 162.751 432.98 163.999C433.711 164.507 434.405 165.066 435.058 165.671C436.102 166.821 436.394 167.83 436.615 167.759Z" fill="#3B3A3A"/>
<path d="M436.632 169.29C436.385 169.148 436.579 168.051 437.234 167.255C437.773 166.6 438.251 166.6 439.003 166.131C440.771 164.99 440.922 162.991 441.222 163.079C441.523 163.167 441.629 165.344 440.4 166.618C439.984 167.043 439.825 166.937 438.817 167.644C437.313 168.653 436.854 169.423 436.632 169.29Z" fill="#3B3A3A"/>
<path d="M436.827 169.29C437.03 169.069 436.42 168.104 435.845 167.52C435.12 166.742 434.678 166.777 433.909 166.105C433.214 165.417 432.648 164.611 432.237 163.725C432.087 163.787 432.299 165.494 433.404 167.007C434.51 168.52 436.553 169.555 436.827 169.29Z" fill="#3B3A3A"/>
<path d="M436.155 170.971C436.022 170.785 436.597 170.086 437.101 169.644C437.605 169.202 437.871 169.228 438.543 168.759C439.174 168.271 439.71 167.671 440.126 166.99C440.541 166.335 440.639 165.946 440.718 165.963C440.838 166.869 440.618 167.786 440.099 168.538C439.595 169.289 438.907 169.898 438.1 170.308C437.481 170.6 436.323 171.192 436.155 170.971Z" fill="#3B3A3A"/>
<path d="M436.296 170.997C436.294 170.547 436.182 170.103 435.969 169.706C435.527 168.927 434.819 168.741 434.077 168.29C432.246 167.184 431.706 165.379 431.53 165.485C431.353 165.592 431.777 166.963 432.662 168.211C433.584 169.466 434.844 170.433 436.296 170.997Z" fill="#3B3A3A"/>
<path d="M436.102 173.714C435.934 173.864 434.696 173.192 434.076 171.998C433.564 170.989 433.944 170.511 433.396 169.255C433.079 168.666 432.715 168.104 432.308 167.574C433.239 167.952 433.998 168.661 434.439 169.564C434.881 170.378 434.704 170.644 435.323 172.006C435.792 173.174 436.199 173.625 436.102 173.714Z" fill="#3B3A3A"/>
<path d="M436.102 173.714C435.898 173.625 435.969 172.599 436.482 171.732C436.995 170.865 437.915 170.378 439.303 169.741C440.426 169.228 441.824 168.742 441.903 168.901C441.983 169.06 441.726 169.113 440.028 170.237C439.259 170.688 438.523 171.193 437.826 171.75C436.632 172.829 436.279 173.82 436.102 173.714Z" fill="#3B3A3A"/>
<path d="M435.27 177.377C435.439 177.217 434.988 176.43 434.563 175.908C434.138 175.386 433.873 175.368 433.298 174.767C432.756 174.173 432.324 173.487 432.025 172.74C431.724 172.015 431.698 171.617 431.618 171.626C431.341 172.502 431.407 173.451 431.804 174.28C432.179 175.094 432.758 175.798 433.484 176.324C434.032 176.784 435.076 177.562 435.27 177.377Z" fill="#3B3A3A"/>
<path d="M435.138 177.377C435.204 176.933 435.387 176.514 435.668 176.164C436.234 175.457 436.96 175.395 437.773 175.076C439.763 174.289 440.594 172.608 440.754 172.732C440.913 172.855 440.258 174.156 439.179 175.235C438.06 176.314 436.659 177.056 435.138 177.377Z" fill="#3B3A3A"/>
<path d="M435.615 175.545C435.863 175.395 435.66 174.298 435.005 173.51C434.466 172.865 433.988 172.856 433.281 172.396C431.512 171.254 431.353 169.255 431.052 169.343C430.751 169.432 430.654 171.617 431.874 172.882C432.299 173.307 432.458 173.201 433.466 173.909C434.934 174.908 435.394 175.678 435.615 175.545Z" fill="#3B3A3A"/>
<path d="M435.421 175.483C435.217 175.271 435.828 174.306 436.402 173.714C437.119 172.935 437.561 172.97 438.33 172.298C439.016 171.602 439.578 170.794 439.993 169.909C440.143 169.971 439.931 171.679 438.835 173.192C437.632 174.846 435.695 175.811 435.421 175.483Z" fill="#3B3A3A"/>
<path d="M433.917 178.305C434.112 178.19 433.864 177.323 433.581 176.713C433.298 176.102 433.033 176.023 432.626 175.297C432.24 174.591 431.986 173.821 431.874 173.023C431.759 172.254 431.83 171.856 431.751 171.847C431.262 172.639 431.097 173.59 431.291 174.501C431.463 175.381 431.856 176.203 432.432 176.89C432.847 177.43 433.679 178.438 433.917 178.305Z" fill="#3B3A3A"/>
<path d="M433.776 178.27C433.957 177.858 434.236 177.497 434.59 177.218C435.306 176.678 436.031 176.793 436.889 176.678C439.011 176.395 440.223 174.953 440.347 175.112C440.471 175.271 439.533 176.377 438.215 177.164C436.871 177.949 435.331 178.333 433.776 178.27Z" fill="#3B3A3A"/>
<path d="M432.087 180.553C432.087 180.783 433.466 181.146 434.74 180.704C435.81 180.332 435.863 179.721 437.128 179.191C437.763 178.984 438.413 178.827 439.073 178.722C438.134 178.36 437.094 178.36 436.155 178.722C435.27 179.005 435.217 179.314 433.847 179.89C432.679 180.35 432.069 180.403 432.087 180.553Z" fill="#3B3A3A"/>
<path d="M432.096 180.571C432.299 180.642 432.98 179.845 433.183 178.863C433.387 177.881 433.077 176.899 432.502 175.475C432.043 174.333 431.362 173.015 431.202 173.077C431.043 173.139 431.202 173.351 431.636 175.333C431.881 176.204 432.067 177.091 432.193 177.987C432.308 179.527 431.875 180.491 432.096 180.571Z" fill="#3B3A3A"/>
<path d="M431.14 181.756C431.043 181.491 431.892 180.765 432.909 180.562C433.732 180.394 434.112 180.695 434.952 180.783C437.03 181.004 438.428 179.562 438.605 179.819C438.781 180.075 437.481 181.836 435.748 182.031C435.116 182.011 434.486 181.943 433.864 181.827C432.069 181.677 431.229 182.004 431.14 181.756Z" fill="#3B3A3A"/>
<path d="M431.308 181.862C431.6 181.862 431.742 180.694 431.68 179.854C431.535 179.065 431.334 178.287 431.079 177.527C430.983 176.558 431.052 175.58 431.282 174.634C431.132 174.634 430.221 176.049 430.123 177.907C430.017 179.951 430.91 181.915 431.308 181.862Z" fill="#3B3A3A"/>
<path d="M429.708 182.765C429.708 182.535 430.592 182.358 431.282 182.331C431.972 182.305 432.166 182.499 432.971 182.535C433.775 182.557 434.576 182.428 435.332 182.154C436.075 181.907 436.394 181.668 436.438 181.73C435.963 182.512 435.212 183.086 434.333 183.34C433.469 183.588 432.557 183.615 431.68 183.42C430.972 183.313 429.699 183.039 429.708 182.765Z" fill="#3B3A3A"/>
<path d="M429.796 182.871C430.088 182.527 430.283 182.112 430.362 181.668C430.391 180.865 430.191 180.071 429.787 179.376C429.071 177.359 429.787 175.625 429.593 175.59C429.398 175.554 428.85 176.89 428.708 178.421C428.644 179.977 429.022 181.52 429.796 182.871Z" fill="#3B3A3A"/>
<path d="M427.912 184.862C427.682 184.862 427.152 183.561 427.426 182.252C427.665 181.146 428.266 181.013 428.629 179.686C428.754 179.029 428.828 178.364 428.85 177.695C429.329 178.583 429.468 179.615 429.239 180.597C429.071 181.482 428.77 181.597 428.355 183.03C428.036 184.243 428.063 184.853 427.912 184.862Z" fill="#3B3A3A"/>
<path d="M427.895 184.853C427.797 184.658 428.505 183.897 429.442 183.552C430.38 183.207 431.415 183.411 432.891 183.8C433.794 183.972 434.657 184.308 435.438 184.791C435.438 184.862 435.173 184.844 433.139 184.641C432.26 184.511 431.374 184.437 430.486 184.419C428.903 184.508 428.001 185.056 427.895 184.853Z" fill="#3B3A3A"/>
<path d="M424.976 187.162C425.206 187.162 425.348 186.277 425.357 185.578C425.365 184.879 425.153 184.693 425.091 183.897C425.044 183.092 425.146 182.285 425.392 181.517C425.622 180.774 425.852 180.447 425.781 180.402C425.018 180.904 424.471 181.674 424.251 182.561C424.024 183.431 424.024 184.345 424.251 185.215C424.384 185.923 424.702 187.188 424.976 187.162Z" fill="#3B3A3A"/>
<path d="M424.861 187.083C425.199 186.783 425.607 186.574 426.046 186.472C426.85 186.417 427.653 186.588 428.363 186.968C430.398 187.622 432.113 186.835 432.157 187.038C432.202 187.242 430.875 187.826 429.354 187.976C427.802 188.109 426.244 187.8 424.861 187.083Z" fill="#3B3A3A"/>
<path d="M426.374 185.968C426.657 185.968 427.196 185.03 427.187 184.004C427.187 183.163 426.807 182.853 426.551 182.048C425.914 180.058 427.046 178.394 426.754 178.279C426.462 178.164 424.985 179.783 425.171 181.526C425.323 182.129 425.518 182.721 425.755 183.296C426.267 185.048 426.135 185.932 426.374 185.968Z" fill="#3B3A3A"/>
<path d="M426.259 185.826C426.259 185.525 427.32 185.162 428.151 185.047C428.952 185.035 429.753 185.076 430.548 185.171C431.517 185.068 432.462 184.802 433.343 184.384C433.422 184.517 432.175 185.711 430.371 186.153C428.399 186.702 426.285 186.224 426.259 185.826Z" fill="#3B3A3A"/>
<path d="M422.889 188.33C423.119 188.33 423.225 187.445 423.208 186.737C423.19 186.03 422.969 185.853 422.88 185.056C422.8 184.257 422.869 183.45 423.084 182.676C423.269 181.916 423.49 181.579 423.42 181.544C422.682 182.081 422.168 182.872 421.978 183.765C421.791 184.645 421.831 185.558 422.093 186.419C422.252 187.109 422.615 188.365 422.889 188.33Z" fill="#3B3A3A"/>
<path d="M422.774 188.25C423.1 187.939 423.498 187.714 423.933 187.595C424.817 187.383 425.427 187.772 426.267 188.002C428.328 188.569 430.008 187.719 430.053 187.914C430.097 188.109 428.814 188.755 427.293 188.967C425.75 189.16 424.182 188.912 422.774 188.25Z" fill="#3B3A3A"/>
<path d="M421.244 188.259C421.474 188.259 421.793 187.445 421.934 186.782C422.076 186.118 421.934 185.897 422.022 185.083C422.134 184.286 422.395 183.518 422.792 182.818C423.154 182.128 423.446 181.853 423.393 181.792C422.544 182.133 421.853 182.78 421.456 183.605C421.067 184.412 420.887 185.303 420.935 186.198C420.917 186.923 420.979 188.224 421.244 188.259Z" fill="#3B3A3A"/>
<path d="M421.156 188.153C421.544 187.93 421.982 187.808 422.429 187.799C423.314 187.799 423.844 188.321 424.605 188.746C426.471 189.79 428.302 189.374 428.302 189.578C428.302 189.781 426.887 190.091 425.365 189.94C423.822 189.755 422.362 189.135 421.156 188.153Z" fill="#3B3A3A"/>
<path d="M418.414 188.958C418.29 189.153 419.157 190.259 420.439 190.666C421.518 191.011 421.925 190.551 423.261 190.896C423.894 191.104 424.507 191.37 425.091 191.692C424.563 190.837 423.738 190.207 422.774 189.922C421.89 189.622 421.669 189.834 420.227 189.471C419.024 189.153 418.511 188.825 418.414 188.958Z" fill="#3B3A3A"/>
<path d="M418.414 188.976C418.529 189.153 419.537 188.914 420.307 188.268C421.076 187.622 421.403 186.631 421.793 185.145C422.111 183.951 422.359 182.491 422.199 182.491C422.04 182.491 422.014 182.694 421.191 184.561C420.874 185.396 420.495 186.206 420.059 186.985C419.228 188.268 418.308 188.755 418.414 188.976Z" fill="#3B3A3A"/>
<path d="M416.955 189.356C417.043 189.082 418.149 189.011 419.077 189.454C419.838 189.816 419.962 190.285 420.572 190.861C422.102 192.285 424.11 191.975 424.11 192.285C424.11 192.595 422.005 193.223 420.492 192.285C419.98 191.984 420.041 191.807 419.113 190.993C417.733 189.87 416.875 189.64 416.955 189.356Z" fill="#3B3A3A"/>
<path d="M417.026 189.542C417.282 189.684 418.069 188.861 418.529 188.153C418.875 187.434 419.171 186.692 419.414 185.932C419.915 185.096 420.562 184.355 421.324 183.747C421.227 183.614 419.617 184.234 418.423 185.667C417.141 187.233 416.645 189.348 417.026 189.542Z" fill="#3B3A3A"/>
<path d="M415.204 189.294C415.345 189.117 416.159 189.507 416.716 189.896C417.273 190.285 417.3 190.551 417.946 191.073C418.576 191.575 419.296 191.954 420.068 192.188C420.811 192.435 421.209 192.435 421.2 192.515C420.347 192.849 419.4 192.849 418.547 192.515C417.708 192.199 416.965 191.672 416.389 190.984C415.885 190.524 415.027 189.507 415.204 189.294Z" fill="#3B3A3A"/>
<path d="M415.213 189.436C415.649 189.334 416.051 189.12 416.38 188.817C417.043 188.197 417.043 187.463 417.309 186.631C417.945 184.596 419.564 183.641 419.422 183.49C419.281 183.34 418.043 184.083 417.043 185.26C416.054 186.453 415.42 187.9 415.213 189.436Z" fill="#3B3A3A"/>
<path d="M402.743 161.035H403.451V162.637C403.231 162.8 402.986 162.926 402.725 163.008C402.44 163.1 402.141 163.145 401.841 163.141C401.456 163.147 401.076 163.055 400.735 162.876C400.412 162.7 400.143 162.441 399.955 162.124C399.767 161.808 399.667 161.447 399.667 161.08C399.667 160.712 399.767 160.351 399.955 160.035C400.143 159.718 400.412 159.459 400.735 159.283C401.049 159.127 401.392 159.038 401.742 159.021C402.092 159.004 402.442 159.06 402.77 159.186C403.039 159.289 403.278 159.456 403.468 159.673L402.991 160.124C402.748 159.891 402.439 159.739 402.106 159.69C401.773 159.641 401.433 159.697 401.133 159.85C400.918 159.962 400.74 160.134 400.621 160.345C400.499 160.569 400.435 160.82 400.435 161.075C400.435 161.33 400.499 161.581 400.621 161.805C400.742 162.017 400.92 162.191 401.133 162.309C401.364 162.433 401.623 162.494 401.885 162.486C402.173 162.495 402.457 162.425 402.708 162.283L402.743 161.035Z" fill="#3B3A3A"/>
<path d="M407.05 163.096L406.236 161.92H405.149V163.096H404.406V159.08H406.051C406.354 159.078 406.655 159.138 406.935 159.257C407.175 159.358 407.381 159.527 407.528 159.743C407.666 159.976 407.736 160.242 407.731 160.513C407.739 160.789 407.662 161.061 407.51 161.292C407.356 161.515 407.137 161.685 406.882 161.778L407.766 163.096H407.05ZM406.785 159.92C406.568 159.768 406.306 159.696 406.042 159.717H405.157V161.327H406.042C406.305 161.344 406.567 161.273 406.785 161.123C406.869 161.05 406.935 160.959 406.978 160.856C407.021 160.753 407.039 160.642 407.032 160.531C407.044 160.415 407.028 160.298 406.985 160.19C406.942 160.082 406.873 159.987 406.785 159.911V159.92Z" fill="#3B3A3A"/>
<path d="M411.215 162.159H409.208L408.819 163.088H408.049L409.818 159.071H410.552L412.4 163.096H411.622L411.215 162.159ZM410.968 161.575L410.216 159.805L409.464 161.575H410.968Z" fill="#3B3A3A"/>
<path d="M415.469 159.248C415.71 159.35 415.915 159.519 416.062 159.735C416.2 159.967 416.27 160.234 416.265 160.505C416.27 160.769 416.199 161.03 416.062 161.257C415.919 161.48 415.713 161.656 415.469 161.761C415.188 161.872 414.888 161.929 414.585 161.929H413.701V163.097H412.958V159.08H414.611C414.906 159.08 415.197 159.137 415.469 159.248ZM415.266 161.088C415.35 161.018 415.417 160.928 415.46 160.826C415.503 160.725 415.521 160.615 415.514 160.505C415.521 160.393 415.503 160.282 415.46 160.179C415.417 160.076 415.35 159.984 415.266 159.912C415.05 159.759 414.787 159.687 414.523 159.708H413.639V161.327H414.523C414.791 161.338 415.054 161.254 415.266 161.088Z" fill="#3B3A3A"/>
<path d="M420.572 159.071V163.096H419.829V161.327H417.751V163.096H417.008V159.08H417.751V160.743H419.829V159.08L420.572 159.071Z" fill="#3B3A3A"/>
<path d="M421.651 159.071H422.394V163.096H421.651V159.071Z" fill="#3B3A3A"/>
<path d="M424.242 162.875C423.924 162.705 423.658 162.451 423.473 162.141C423.284 161.819 423.186 161.452 423.19 161.079C423.187 160.706 423.285 160.34 423.473 160.018C423.658 159.707 423.924 159.453 424.242 159.283C424.58 159.104 424.957 159.012 425.339 159.018C425.642 159.015 425.942 159.072 426.223 159.186C426.491 159.295 426.728 159.468 426.913 159.69L426.427 160.141C426.293 159.99 426.129 159.869 425.944 159.788C425.759 159.707 425.558 159.668 425.357 159.673C425.101 159.665 424.847 159.726 424.623 159.849C424.409 159.968 424.231 160.142 424.11 160.354C423.988 160.576 423.924 160.826 423.924 161.079C423.924 161.333 423.988 161.582 424.11 161.805C424.229 162.018 424.407 162.193 424.623 162.309C424.847 162.433 425.101 162.494 425.357 162.486C425.558 162.491 425.759 162.452 425.944 162.371C426.129 162.289 426.293 162.169 426.427 162.017L426.913 162.468C426.728 162.69 426.491 162.864 426.223 162.973C425.942 163.086 425.642 163.143 425.339 163.141C424.957 163.147 424.579 163.056 424.242 162.875Z" fill="#3B3A3A"/>
<path d="M399.948 165.45H401.531C401.886 165.443 402.237 165.519 402.557 165.671C402.844 165.813 403.084 166.034 403.247 166.308C403.417 166.594 403.503 166.923 403.495 167.255C403.503 167.588 403.417 167.916 403.247 168.202C403.08 168.472 402.841 168.689 402.557 168.83C402.238 168.986 401.887 169.065 401.531 169.06H399.948V165.45ZM401.496 168.494C401.739 168.499 401.978 168.444 402.195 168.335C402.391 168.244 402.553 168.092 402.655 167.901C402.771 167.706 402.829 167.482 402.823 167.255C402.829 167.025 402.771 166.798 402.655 166.6C402.55 166.412 402.389 166.26 402.195 166.167C401.978 166.06 401.738 166.009 401.496 166.016H400.612V168.494H401.496Z" fill="#3B3A3A"/>
<path d="M406.917 168.494V169.06H404.211V165.45H406.864V166.008H404.901V166.945H406.67V167.521H404.901V168.511L406.917 168.494Z" fill="#3B3A3A"/>
<path d="M407.97 168.989C407.748 168.927 407.541 168.822 407.359 168.68L407.589 168.158C407.752 168.281 407.935 168.377 408.129 168.441C408.34 168.51 408.561 168.546 408.783 168.547C408.991 168.563 409.2 168.52 409.385 168.423C409.444 168.388 409.494 168.337 409.528 168.276C409.562 168.216 409.58 168.148 409.579 168.078C409.581 168.031 409.572 167.983 409.552 167.94C409.532 167.897 409.502 167.86 409.464 167.83C409.388 167.755 409.293 167.7 409.19 167.671L408.686 167.521C408.461 167.47 408.239 167.405 408.023 167.326C407.852 167.262 407.7 167.155 407.581 167.016C407.45 166.861 407.383 166.662 407.395 166.459C407.396 166.264 407.455 166.073 407.563 165.91C407.686 165.738 407.854 165.604 408.049 165.521C408.305 165.419 408.579 165.37 408.854 165.379C409.072 165.379 409.289 165.406 409.5 165.459C409.698 165.506 409.886 165.587 410.057 165.698L409.845 166.22C409.691 166.126 409.524 166.054 409.349 166.008C409.186 165.959 409.016 165.935 408.845 165.937C408.642 165.922 408.438 165.968 408.262 166.07C408.201 166.106 408.15 166.158 408.116 166.22C408.082 166.282 408.065 166.353 408.067 166.423C408.065 166.471 408.074 166.519 408.092 166.563C408.111 166.608 408.138 166.647 408.173 166.68C408.258 166.747 408.353 166.798 408.456 166.83L408.916 166.963C409.142 167.009 409.364 167.074 409.579 167.158C409.748 167.222 409.9 167.325 410.021 167.459C410.151 167.615 410.217 167.814 410.207 168.016C410.212 168.21 410.153 168.399 410.039 168.556C409.918 168.73 409.749 168.866 409.553 168.945C409.297 169.047 409.023 169.095 408.748 169.087C408.485 169.091 408.223 169.058 407.97 168.989Z" fill="#3B3A3A"/>
<path d="M410.906 165.45H411.578V169.06H410.906V165.45Z" fill="#3B3A3A"/>
<path d="M415.009 167.211H415.646V168.653C415.452 168.801 415.233 168.915 415.001 168.989C414.752 169.067 414.492 169.106 414.231 169.104C413.886 169.109 413.545 169.027 413.241 168.865C412.951 168.713 412.709 168.483 412.542 168.202C412.372 167.916 412.286 167.588 412.294 167.255C412.288 166.92 412.374 166.589 412.542 166.299C412.709 166.018 412.951 165.788 413.241 165.636C413.523 165.495 413.832 165.415 414.147 165.4C414.462 165.384 414.777 165.435 415.071 165.547C415.31 165.638 415.523 165.787 415.69 165.981L415.266 166.397C415.138 166.263 414.984 166.158 414.814 166.086C414.643 166.015 414.46 165.979 414.275 165.981C414.039 165.977 413.805 166.032 413.594 166.14C413.402 166.245 413.243 166.401 413.135 166.591C413.019 166.793 412.961 167.023 412.966 167.255C412.962 167.482 413.02 167.705 413.135 167.901C413.243 168.091 413.402 168.247 413.594 168.352C413.8 168.466 414.032 168.524 414.267 168.52C414.526 168.526 414.783 168.462 415.009 168.334V167.211Z" fill="#3B3A3A"/>
<path d="M419.732 165.45V169.06H419.184L417.194 166.636V169.087H416.531V165.477H417.079L419.069 167.919V165.477L419.732 165.45Z" fill="#3B3A3A"/>
<path d="M423.411 168.494V169.06H420.705V165.45H423.358V166.008H421.395V166.945H423.163V167.521H421.395V168.511L423.411 168.494Z" fill="#3B3A3A"/>
<path d="M426.515 169.06L425.781 167.998H424.826V169.051H424.154V165.441H425.64C425.918 165.432 426.196 165.484 426.453 165.592C426.674 165.681 426.862 165.836 426.993 166.034C427.12 166.241 427.185 166.481 427.178 166.724C427.183 166.973 427.112 167.216 426.975 167.423C426.836 167.625 426.639 167.78 426.409 167.866L427.24 169.051L426.515 169.06ZM426.276 166.202C426.083 166.066 425.849 166 425.613 166.017H424.826V167.45H425.613C425.849 167.466 426.083 167.401 426.276 167.264C426.347 167.195 426.403 167.112 426.441 167.021C426.48 166.93 426.499 166.832 426.499 166.733C426.499 166.634 426.48 166.536 426.441 166.445C426.403 166.354 426.347 166.272 426.276 166.202Z" fill="#3B3A3A"/>
<path d="M402.717 174.421H400.638L400.231 175.386H399.435L401.302 171.236H402.062L403.937 175.386H403.123L402.717 174.421ZM402.46 173.82L401.673 172.006L400.904 173.82H402.46Z" fill="#3B3A3A"/>
<path d="M410.305 171.236L408.925 175.386H408.111L407.085 172.316L406.033 175.386H405.211L403.84 171.236H404.636L405.662 174.386L406.74 171.236H407.448L408.5 174.404L409.57 171.236H410.305Z" fill="#3B3A3A"/>
<path d="M413.488 174.421H411.41L411.003 175.386H410.216L412.073 171.236H412.834L414.709 175.386H413.904L413.488 174.421ZM413.232 173.82L412.454 172.006L411.675 173.82H413.232Z" fill="#3B3A3A"/>
<path d="M417.945 175.386L417.061 174.174H415.973V175.386H415.204V171.237H416.902C417.226 171.231 417.548 171.291 417.848 171.414C418.102 171.52 418.317 171.702 418.464 171.935C418.611 172.167 418.683 172.439 418.671 172.714C418.676 173 418.596 173.28 418.441 173.519C418.278 173.749 418.05 173.925 417.786 174.024L418.741 175.386H417.945ZM417.671 172.104C417.446 171.948 417.175 171.873 416.902 171.891H416.018V173.546H416.902C417.176 173.562 417.447 173.484 417.671 173.325C417.828 173.16 417.916 172.942 417.916 172.714C417.916 172.487 417.828 172.268 417.671 172.104Z" fill="#3B3A3A"/>
<path d="M419.564 171.237H421.377C421.783 171.231 422.186 171.319 422.553 171.493C422.885 171.657 423.164 171.912 423.358 172.228C423.544 172.558 423.642 172.932 423.642 173.311C423.642 173.691 423.544 174.064 423.358 174.395C423.164 174.711 422.885 174.966 422.553 175.13C422.186 175.304 421.783 175.392 421.377 175.386H419.564V171.237ZM421.333 174.776C421.611 174.784 421.888 174.723 422.137 174.599C422.361 174.492 422.546 174.319 422.668 174.103C422.79 173.873 422.853 173.616 422.853 173.356C422.853 173.095 422.79 172.838 422.668 172.608C422.544 172.392 422.36 172.216 422.137 172.104C421.886 171.985 421.61 171.928 421.333 171.936H420.324V174.776H421.333Z" fill="#3B3A3A"/>
<path d="M424.817 175.306C424.558 175.239 424.316 175.115 424.11 174.943L424.375 174.351C424.565 174.493 424.777 174.603 425.003 174.678C425.243 174.758 425.493 174.8 425.746 174.802C425.985 174.821 426.226 174.769 426.436 174.651C426.504 174.613 426.561 174.556 426.6 174.488C426.639 174.419 426.659 174.341 426.657 174.262C426.659 174.207 426.649 174.153 426.627 174.102C426.606 174.052 426.574 174.007 426.533 173.97C426.44 173.89 426.332 173.829 426.214 173.793C426.082 173.749 425.905 173.696 425.675 173.643C425.417 173.582 425.163 173.506 424.914 173.413C424.719 173.344 424.545 173.225 424.41 173.068C424.261 172.883 424.185 172.65 424.198 172.413C424.196 172.193 424.261 171.977 424.384 171.794C424.523 171.59 424.72 171.433 424.95 171.342C425.231 171.23 425.531 171.173 425.834 171.174C426.085 171.176 426.334 171.209 426.577 171.272C426.804 171.323 427.02 171.416 427.214 171.546L426.966 172.148C426.791 172.036 426.6 171.953 426.4 171.9C426.213 171.848 426.02 171.821 425.825 171.82C425.588 171.801 425.351 171.854 425.144 171.971C425.077 172.015 425.022 172.076 424.983 172.147C424.945 172.218 424.924 172.297 424.923 172.378C424.921 172.433 424.932 172.489 424.955 172.54C424.978 172.59 425.012 172.635 425.056 172.67C425.147 172.753 425.256 172.813 425.374 172.847C425.507 172.847 425.684 172.944 425.905 172.997C426.164 173.051 426.418 173.125 426.665 173.218C426.861 173.291 427.035 173.413 427.17 173.572C427.321 173.748 427.397 173.977 427.382 174.209C427.384 174.432 427.319 174.651 427.196 174.837C427.054 175.036 426.857 175.19 426.63 175.28C426.349 175.392 426.049 175.449 425.746 175.448C425.431 175.445 425.118 175.398 424.817 175.306Z" fill="#3B3A3A"/>
<path d="M398.392 274.337C398.486 278.134 400.059 281.744 402.776 284.396C405.493 287.048 409.139 288.533 412.936 288.533C416.732 288.533 420.378 287.048 423.095 284.396C425.812 281.744 427.386 278.134 427.479 274.337H398.392Z" fill="#3B3A3A"/>
<path d="M400.727 251.679V255.05H405.149V255.837H400.727V259.535H399.842V250.936H405.732V251.723L400.727 251.679Z" fill="#3B3A3A"/>
<path d="M407.572 250.892H408.456V259.536H407.572V250.892Z" fill="#3B3A3A"/>
<path d="M418.467 250.892V259.536H417.716L412.224 252.511V259.536H411.339V250.936H412.091L417.627 257.917V250.936L418.467 250.892Z" fill="#3B3A3A"/>
<path d="M427.346 258.704V259.535H421.262V250.936H427.161V251.723H422.173V254.775H426.595V255.554H422.173V258.748L427.346 258.704Z" fill="#3B3A3A"/>
<path d="M404.609 269.347H400.187L399.241 271.453H398.357L401.956 263.579H402.778L406.378 271.453H405.493L404.609 269.347ZM404.3 268.675L402.416 264.446L400.523 268.675H404.3Z" fill="#3B3A3A"/>
<path d="M413.108 271.453L411.339 268.923C411.13 268.936 410.92 268.936 410.711 268.923H408.598V271.418H407.766V263.543H410.711C411.56 263.493 412.398 263.751 413.073 264.269C413.362 264.508 413.592 264.81 413.745 265.152C413.898 265.494 413.971 265.867 413.957 266.242C413.985 266.794 413.825 267.339 413.504 267.788C413.183 268.238 412.719 268.566 412.188 268.719L414.116 271.418L413.108 271.453ZM412.445 267.728C412.653 267.551 412.817 267.327 412.925 267.075C413.032 266.824 413.08 266.55 413.064 266.277C413.079 266.001 413.03 265.726 412.923 265.471C412.816 265.217 412.652 264.99 412.445 264.808C411.93 264.444 411.306 264.266 410.676 264.304H408.58V268.25H410.676C411.308 268.287 411.934 268.103 412.445 267.728Z" fill="#3B3A3A"/>
<path d="M417.273 264.304H414.514V263.579H420.873V264.304H418.114V271.453H417.229L417.273 264.304Z" fill="#3B3A3A"/>
<path d="M422.571 271.241C422.101 271.097 421.673 270.842 421.324 270.498L421.651 269.861C421.975 270.168 422.361 270.404 422.783 270.551C423.253 270.726 423.75 270.816 424.251 270.816C424.807 270.856 425.36 270.72 425.834 270.427C426 270.316 426.135 270.166 426.227 269.99C426.32 269.814 426.367 269.617 426.365 269.418C426.371 269.279 426.348 269.141 426.298 269.011C426.248 268.882 426.171 268.764 426.073 268.666C425.875 268.472 425.636 268.324 425.374 268.233C424.994 268.104 424.607 267.994 424.216 267.905C423.749 267.795 423.288 267.659 422.836 267.498C422.497 267.356 422.195 267.138 421.952 266.861C421.69 266.534 421.558 266.121 421.58 265.702C421.578 265.317 421.685 264.94 421.89 264.614C422.129 264.263 422.468 263.992 422.863 263.835C423.376 263.626 423.927 263.526 424.481 263.543C424.927 263.543 425.37 263.606 425.799 263.729C426.199 263.837 426.578 264.01 426.922 264.242L426.639 264.906C426.312 264.688 425.955 264.521 425.578 264.41C425.221 264.307 424.852 264.253 424.481 264.251C423.933 264.212 423.387 264.352 422.925 264.649C422.76 264.764 422.626 264.918 422.535 265.097C422.444 265.276 422.399 265.475 422.403 265.676C422.395 265.815 422.416 265.955 422.465 266.086C422.514 266.216 422.589 266.336 422.686 266.437C422.89 266.634 423.134 266.785 423.402 266.879C423.694 266.976 424.083 267.091 424.57 267.206C425.044 267.317 425.511 267.458 425.967 267.631C426.308 267.765 426.612 267.981 426.851 268.259C427.112 268.581 427.244 268.987 427.223 269.401C427.226 269.787 427.116 270.165 426.904 270.489C426.663 270.839 426.321 271.108 425.923 271.259C425.406 271.466 424.852 271.566 424.295 271.55C423.707 271.548 423.123 271.443 422.571 271.241Z" fill="#3B3A3A"/>
</svg>
