<svg width="84" height="86" viewBox="0 0 84 86" fill="none" xmlns="http://www.w3.org/2000/svg">
<g id="Group">
<g id="Group_2">
<path id="Vector" d="M64.4649 28.6738C52.5169 27.8245 45.5456 31.7149 41.8529 34.9935C38.1399 31.6756 31.1095 27.8047 19.0432 28.6935C18.7667 28.7133 18.4901 28.7331 18.2334 28.7331L19.1107 21.8375C19.1786 21.304 19.5351 20.8401 20.0345 20.6404C34.3988 14.8958 48.6167 14.7901 62.6877 20.712C63.1741 20.9168 63.5194 21.3741 63.5872 21.8975L64.4649 28.6738Z" fill="#9E5CF2"/>
<path id="Vector_2" d="M78.8406 46.5272C74.6932 41.0373 68.0973 37.4827 60.6916 37.4827C52.871 37.4827 45.959 41.4519 41.8516 47.4556C37.7437 41.4519 30.8317 37.4827 23.0113 37.4827C15.6056 37.4827 9.00939 41.0373 4.84271 46.5272C-1.63489 39.5166 -0.173511 31.2418 1.10995 27.2921C1.36694 26.4826 2.43318 26.3838 2.86785 27.1147C4.23039 29.4251 7.70616 32.7427 16.4349 32.7625C17.3432 32.7625 18.3109 32.723 19.3379 32.6441C36.8749 31.3209 41.8516 41.0373 41.8516 41.0373C41.8516 41.0373 46.828 31.3209 64.3648 32.6441C65.3917 32.723 66.3594 32.7625 67.248 32.7625C75.9769 32.7427 79.4527 29.4251 80.8155 27.1147C81.2499 26.3838 82.3164 26.4826 82.5729 27.2921C83.8566 31.2418 85.3378 39.5364 78.8406 46.5272Z" fill="#9E5CF2"/>
<path id="Vector_3" d="M47.6372 78.9356C47.0051 81.1472 45.5833 83.7146 42.4829 85.8081C42.1075 86.0646 41.594 86.0646 41.2189 85.8081C38.1183 83.7146 36.6964 81.1472 36.0646 78.9356C38.3159 77.3556 40.2908 75.361 41.851 73.0898C43.411 75.361 45.3859 77.3556 47.6372 78.9356Z" fill="#9E5CF2"/>
<path id="Vector_4" d="M60.6919 41.4312C50.2844 41.4312 41.8519 49.8636 41.8519 60.2712C41.8519 70.6787 50.2844 79.1112 60.6919 79.1112C71.0995 79.1112 79.5319 70.6787 79.5319 60.2712C79.5319 49.8636 71.0995 41.4312 60.6919 41.4312ZM60.6919 72.8708C53.7404 72.8708 48.0923 67.2227 48.0923 60.2712C48.0923 53.3196 53.7404 47.6716 60.6919 47.6716C67.6237 47.6716 73.2915 53.3196 73.2915 60.2712C73.2915 67.2227 67.6237 72.8708 60.6919 72.8708Z" fill="#9E5CF2"/>
<path id="Vector_5" d="M80.737 15.3248L75.622 17.0231V24.1328C75.622 25.2386 74.7334 26.1077 73.6471 26.1077C72.5611 26.1077 71.6722 25.2386 71.6722 24.1328V18.3266L67.0514 19.8668C66.5181 18.6229 65.4912 17.5959 64.227 17.0627C56.782 13.9423 49.1393 12.3427 41.4966 12.3427C33.9527 12.3427 26.2307 13.903 18.5685 16.9836C17.3241 17.4773 16.3366 18.4055 15.7443 19.5708L2.94727 15.3248C1.66357 14.9102 1.66357 12.9944 2.94727 12.5797L39.9957 0.296155C41.2003 -0.0987183 42.484 -0.0987183 43.6886 0.296155L80.737 12.5797C82.0205 12.9943 82.0205 14.9101 80.737 15.3248Z" fill="#9E5CF2"/>
</g>
<g id="Group_3">
<path id="Vector_6" d="M60.6918 51.624C55.9125 51.624 52.0419 55.4947 52.0419 60.2739C52.0419 65.0334 55.9125 68.9238 60.6918 68.9238C65.4512 68.9238 69.3416 65.0334 69.3416 60.2739C69.3416 55.4947 65.4512 51.624 60.6918 51.624ZM58.1663 60.2867C57.0508 60.2867 56.1427 59.3788 56.1427 58.2634C56.1427 58.213 56.1447 58.1629 56.1483 58.1137C56.2252 57.0677 57.101 56.2401 58.1663 56.2401C59.2817 56.2401 60.1896 57.1479 60.1896 58.2634C60.1896 59.3605 59.2632 60.2867 58.1663 60.2867Z" fill="#9E5CF2"/>
<path id="Vector_7" d="M23.0137 51.6235C18.2347 51.6235 14.364 55.4942 14.364 60.2734C14.364 65.0329 18.2347 68.9233 23.0137 68.9233C27.7734 68.9233 31.6638 65.0329 31.6638 60.2734C31.6638 55.4942 27.7734 51.6235 23.0137 51.6235ZM20.4882 60.2862C19.3728 60.2862 18.4649 59.3783 18.4649 58.2629C18.4649 58.2125 18.4665 58.1624 18.4704 58.1132C18.5473 57.0672 19.4231 56.2396 20.4882 56.2396C21.6039 56.2396 22.5118 57.1475 22.5118 58.2629C22.5118 59.36 21.5853 60.2862 20.4882 60.2862Z" fill="#9E5CF2"/>
</g>
<path id="Vector_8" d="M23.0142 41.4312C12.6066 41.4312 4.17419 49.8636 4.17419 60.2712C4.17419 70.6787 12.6066 79.1112 23.0142 79.1112C33.4217 79.1112 41.8542 70.6787 41.8542 60.2712C41.8542 49.8636 33.4217 41.4312 23.0142 41.4312ZM23.0142 72.8708C16.0627 72.8708 10.4146 67.2227 10.4146 60.2712C10.4146 53.3196 16.0627 47.6716 23.0142 47.6716C29.946 47.6716 35.6138 53.3196 35.6138 60.2712C35.6138 67.2227 29.946 72.8708 23.0142 72.8708Z" fill="#9E5CF2"/>
</g>
</svg>
